<mxfile host="Electron" modified="2024-05-01T20:36:04.681Z" agent="Mozilla/5.0 (Windows NT 10.0; Win64; x64) AppleWebKit/537.36 (KHTML, like Gecko) draw.io/24.2.5 Chrome/120.0.6099.109 Electron/28.1.0 Safari/537.36" etag="AGXAD3SkJMwe8rAp75tS" version="24.2.5" type="device">
  <diagram name="Page-1" id="21hHCQ0tWKkvTaQehLVV">
    <mxGraphModel dx="1434" dy="844" grid="1" gridSize="10" guides="1" tooltips="1" connect="1" arrows="1" fold="1" page="1" pageScale="1" pageWidth="850" pageHeight="1100" math="0" shadow="0">
      <root>
        <mxCell id="0" />
        <mxCell id="1" parent="0" />
        <mxCell id="WkK8CL40pcv4JaZWdh5v-7" style="edgeStyle=orthogonalEdgeStyle;rounded=0;orthogonalLoop=1;jettySize=auto;html=1;entryX=0;entryY=0.5;entryDx=0;entryDy=0;" parent="1" source="WkK8CL40pcv4JaZWdh5v-1" target="WkK8CL40pcv4JaZWdh5v-2" edge="1">
          <mxGeometry relative="1" as="geometry" />
        </mxCell>
        <mxCell id="WkK8CL40pcv4JaZWdh5v-1" value="&lt;b&gt;&lt;u&gt;Civil Complaint&lt;/u&gt;&lt;/b&gt; is filed with the Court by Plaintiff pursuant to &lt;i&gt;P.C. 1401&amp;nbsp;&lt;/i&gt;and all associated Court Fees are paid." style="rounded=0;whiteSpace=wrap;html=1;fillColor=#99FF99;" parent="1" vertex="1">
          <mxGeometry x="20" y="32.5" width="160" height="80" as="geometry" />
        </mxCell>
        <mxCell id="WkK8CL40pcv4JaZWdh5v-8" style="edgeStyle=orthogonalEdgeStyle;rounded=0;orthogonalLoop=1;jettySize=auto;html=1;" parent="1" source="WkK8CL40pcv4JaZWdh5v-2" target="WkK8CL40pcv4JaZWdh5v-4" edge="1">
          <mxGeometry relative="1" as="geometry">
            <Array as="points">
              <mxPoint x="340" y="160" />
              <mxPoint x="210" y="160" />
            </Array>
          </mxGeometry>
        </mxCell>
        <mxCell id="WkK8CL40pcv4JaZWdh5v-15" style="edgeStyle=orthogonalEdgeStyle;rounded=0;orthogonalLoop=1;jettySize=auto;html=1;" parent="1" source="WkK8CL40pcv4JaZWdh5v-2" target="WkK8CL40pcv4JaZWdh5v-14" edge="1">
          <mxGeometry relative="1" as="geometry">
            <Array as="points">
              <mxPoint x="340" y="160" />
              <mxPoint x="670" y="160" />
            </Array>
          </mxGeometry>
        </mxCell>
        <mxCell id="WkK8CL40pcv4JaZWdh5v-2" value="Judge claims case and issues &lt;b&gt;&lt;u&gt;Notice of Suit&lt;/u&gt;&lt;/b&gt; to Defendant(s). Defendant&#39;s have 48 hours to file an &lt;b&gt;&lt;u&gt;Appearance&lt;/u&gt;&lt;/b&gt; with the Court and an &lt;b&gt;&lt;u&gt;Answer to Complaint&lt;/u&gt;&lt;/b&gt; pursuant to &lt;i&gt;P.C. 1403&lt;/i&gt; and &lt;i&gt;P.C. 1411 &lt;/i&gt;respectively." style="rounded=0;whiteSpace=wrap;html=1;" parent="1" vertex="1">
          <mxGeometry x="255" y="10" width="175" height="125" as="geometry" />
        </mxCell>
        <mxCell id="WkK8CL40pcv4JaZWdh5v-12" style="edgeStyle=orthogonalEdgeStyle;rounded=0;orthogonalLoop=1;jettySize=auto;html=1;entryX=0.5;entryY=0;entryDx=0;entryDy=0;" parent="1" source="WkK8CL40pcv4JaZWdh5v-4" target="WkK8CL40pcv4JaZWdh5v-11" edge="1">
          <mxGeometry relative="1" as="geometry" />
        </mxCell>
        <mxCell id="WkK8CL40pcv4JaZWdh5v-4" value="Defendant files &lt;b&gt;&lt;u&gt;Appearance&lt;/u&gt;&lt;/b&gt; with the Court within 48 hours pursuant to &lt;i&gt;P.C. 1403&lt;/i&gt;" style="rounded=0;whiteSpace=wrap;html=1;" parent="1" vertex="1">
          <mxGeometry x="150" y="190" width="120" height="60" as="geometry" />
        </mxCell>
        <mxCell id="WkK8CL40pcv4JaZWdh5v-11" value="Defendant files &lt;b&gt;&lt;u&gt;Motion for Enlargement of Time&lt;/u&gt;&lt;/b&gt; pursuant to &lt;i&gt;P.C. 1404&lt;/i&gt;" style="rounded=0;whiteSpace=wrap;html=1;" parent="1" vertex="1">
          <mxGeometry x="30" y="350" width="120" height="80" as="geometry" />
        </mxCell>
        <mxCell id="WkK8CL40pcv4JaZWdh5v-17" style="edgeStyle=orthogonalEdgeStyle;rounded=0;orthogonalLoop=1;jettySize=auto;html=1;entryX=0.5;entryY=0;entryDx=0;entryDy=0;" parent="1" source="WkK8CL40pcv4JaZWdh5v-14" target="WkK8CL40pcv4JaZWdh5v-16" edge="1">
          <mxGeometry relative="1" as="geometry" />
        </mxCell>
        <mxCell id="WkK8CL40pcv4JaZWdh5v-14" value="Defendant fails to respond within 48 hours" style="rounded=0;whiteSpace=wrap;html=1;" parent="1" vertex="1">
          <mxGeometry x="610" y="190" width="110" height="50" as="geometry" />
        </mxCell>
        <mxCell id="WkK8CL40pcv4JaZWdh5v-16" value="" style="rounded=0;whiteSpace=wrap;html=1;" parent="1" vertex="1">
          <mxGeometry x="605" y="270" width="120" height="60" as="geometry" />
        </mxCell>
        <mxCell id="WkK8CL40pcv4JaZWdh5v-25" style="edgeStyle=orthogonalEdgeStyle;rounded=0;orthogonalLoop=1;jettySize=auto;html=1;entryX=0.5;entryY=0;entryDx=0;entryDy=0;" parent="1" source="WkK8CL40pcv4JaZWdh5v-18" target="WkK8CL40pcv4JaZWdh5v-23" edge="1">
          <mxGeometry relative="1" as="geometry">
            <Array as="points">
              <mxPoint x="260" y="430" />
              <mxPoint x="345" y="430" />
              <mxPoint x="345" y="180" />
              <mxPoint x="430" y="180" />
            </Array>
          </mxGeometry>
        </mxCell>
        <mxCell id="WkK8CL40pcv4JaZWdh5v-18" value="Defendant files &lt;u style=&quot;font-weight: bold;&quot;&gt;Answer to Complaint&lt;/u&gt;&amp;nbsp;pursuant to &lt;i&gt;P.C. 1411&lt;/i&gt;" style="rounded=0;whiteSpace=wrap;html=1;" parent="1" vertex="1">
          <mxGeometry x="200" y="350" width="120" height="60" as="geometry" />
        </mxCell>
        <mxCell id="WkK8CL40pcv4JaZWdh5v-21" style="edgeStyle=orthogonalEdgeStyle;rounded=0;orthogonalLoop=1;jettySize=auto;html=1;entryX=0.617;entryY=0.017;entryDx=0;entryDy=0;entryPerimeter=0;" parent="1" source="WkK8CL40pcv4JaZWdh5v-4" target="WkK8CL40pcv4JaZWdh5v-18" edge="1">
          <mxGeometry relative="1" as="geometry">
            <Array as="points">
              <mxPoint x="210" y="300" />
              <mxPoint x="274" y="300" />
            </Array>
          </mxGeometry>
        </mxCell>
        <mxCell id="WkK8CL40pcv4JaZWdh5v-22" style="edgeStyle=orthogonalEdgeStyle;rounded=0;orthogonalLoop=1;jettySize=auto;html=1;entryX=0.367;entryY=0;entryDx=0;entryDy=0;entryPerimeter=0;" parent="1" source="WkK8CL40pcv4JaZWdh5v-11" target="WkK8CL40pcv4JaZWdh5v-18" edge="1">
          <mxGeometry relative="1" as="geometry">
            <Array as="points">
              <mxPoint x="90" y="450" />
              <mxPoint x="175" y="450" />
              <mxPoint x="175" y="320" />
              <mxPoint x="244" y="320" />
            </Array>
          </mxGeometry>
        </mxCell>
        <mxCell id="WkK8CL40pcv4JaZWdh5v-28" style="edgeStyle=orthogonalEdgeStyle;rounded=0;orthogonalLoop=1;jettySize=auto;html=1;entryX=0.5;entryY=0;entryDx=0;entryDy=0;" parent="1" source="WkK8CL40pcv4JaZWdh5v-23" target="WkK8CL40pcv4JaZWdh5v-27" edge="1">
          <mxGeometry relative="1" as="geometry" />
        </mxCell>
        <mxCell id="WkK8CL40pcv4JaZWdh5v-23" value="Judge sets Hearing Date purusant to &lt;i&gt;P.C. 1206&lt;/i&gt;" style="rounded=0;whiteSpace=wrap;html=1;" parent="1" vertex="1">
          <mxGeometry x="370" y="200" width="120" height="60" as="geometry" />
        </mxCell>
        <mxCell id="WkK8CL40pcv4JaZWdh5v-30" style="edgeStyle=orthogonalEdgeStyle;rounded=0;orthogonalLoop=1;jettySize=auto;html=1;entryX=0.5;entryY=0;entryDx=0;entryDy=0;" parent="1" source="WkK8CL40pcv4JaZWdh5v-27" target="WkK8CL40pcv4JaZWdh5v-29" edge="1">
          <mxGeometry relative="1" as="geometry">
            <Array as="points">
              <mxPoint x="430" y="480" />
              <mxPoint x="130" y="480" />
            </Array>
          </mxGeometry>
        </mxCell>
        <mxCell id="beE_tadzqA_jlADr6ZBV-1" style="edgeStyle=orthogonalEdgeStyle;rounded=0;orthogonalLoop=1;jettySize=auto;html=1;entryX=0.5;entryY=0;entryDx=0;entryDy=0;" edge="1" parent="1" source="WkK8CL40pcv4JaZWdh5v-27" target="WkK8CL40pcv4JaZWdh5v-47">
          <mxGeometry relative="1" as="geometry">
            <Array as="points">
              <mxPoint x="430" y="480" />
              <mxPoint x="310" y="480" />
            </Array>
          </mxGeometry>
        </mxCell>
        <mxCell id="beE_tadzqA_jlADr6ZBV-7" style="edgeStyle=orthogonalEdgeStyle;rounded=0;orthogonalLoop=1;jettySize=auto;html=1;" edge="1" parent="1" source="WkK8CL40pcv4JaZWdh5v-27" target="beE_tadzqA_jlADr6ZBV-2">
          <mxGeometry relative="1" as="geometry">
            <Array as="points">
              <mxPoint x="430" y="480" />
              <mxPoint x="480" y="480" />
            </Array>
          </mxGeometry>
        </mxCell>
        <mxCell id="beE_tadzqA_jlADr6ZBV-19" style="edgeStyle=orthogonalEdgeStyle;rounded=0;orthogonalLoop=1;jettySize=auto;html=1;entryX=0.5;entryY=0;entryDx=0;entryDy=0;" edge="1" parent="1" source="WkK8CL40pcv4JaZWdh5v-27" target="beE_tadzqA_jlADr6ZBV-18">
          <mxGeometry relative="1" as="geometry">
            <Array as="points">
              <mxPoint x="430" y="480" />
              <mxPoint x="660" y="480" />
            </Array>
          </mxGeometry>
        </mxCell>
        <mxCell id="WkK8CL40pcv4JaZWdh5v-27" value="Motion / Subpoena Period" style="rhombus;whiteSpace=wrap;html=1;" parent="1" vertex="1">
          <mxGeometry x="385" y="310" width="90" height="100" as="geometry" />
        </mxCell>
        <mxCell id="WkK8CL40pcv4JaZWdh5v-31" style="edgeStyle=orthogonalEdgeStyle;rounded=0;orthogonalLoop=1;jettySize=auto;html=1;" parent="1" source="WkK8CL40pcv4JaZWdh5v-29" target="WkK8CL40pcv4JaZWdh5v-32" edge="1">
          <mxGeometry relative="1" as="geometry">
            <mxPoint x="130" y="610" as="targetPoint" />
          </mxGeometry>
        </mxCell>
        <mxCell id="WkK8CL40pcv4JaZWdh5v-29" value="Plaintiff/Defendant filies &lt;u style=&quot;font-weight: bold;&quot;&gt;Motion to Dismiss&lt;/u&gt;&amp;nbsp;pursuant to &lt;i&gt;P.C. 1406&lt;/i&gt;" style="rounded=0;whiteSpace=wrap;html=1;" parent="1" vertex="1">
          <mxGeometry x="70" y="510" width="120" height="60" as="geometry" />
        </mxCell>
        <mxCell id="WkK8CL40pcv4JaZWdh5v-34" style="edgeStyle=orthogonalEdgeStyle;rounded=0;orthogonalLoop=1;jettySize=auto;html=1;entryX=0.5;entryY=0;entryDx=0;entryDy=0;" parent="1" source="WkK8CL40pcv4JaZWdh5v-32" target="WkK8CL40pcv4JaZWdh5v-33" edge="1">
          <mxGeometry relative="1" as="geometry" />
        </mxCell>
        <mxCell id="WkK8CL40pcv4JaZWdh5v-32" value="Opposing party files &lt;u style=&quot;font-weight: bold;&quot;&gt;Response to Motion&lt;/u&gt;&amp;nbsp;pursuant to &lt;i&gt;P.C. 1412&lt;/i&gt;" style="rounded=0;whiteSpace=wrap;html=1;" parent="1" vertex="1">
          <mxGeometry x="70" y="610" width="120" height="60" as="geometry" />
        </mxCell>
        <mxCell id="WkK8CL40pcv4JaZWdh5v-41" style="edgeStyle=orthogonalEdgeStyle;rounded=0;orthogonalLoop=1;jettySize=auto;html=1;entryX=0.5;entryY=0;entryDx=0;entryDy=0;" parent="1" source="WkK8CL40pcv4JaZWdh5v-33" target="WkK8CL40pcv4JaZWdh5v-35" edge="1">
          <mxGeometry relative="1" as="geometry" />
        </mxCell>
        <mxCell id="WkK8CL40pcv4JaZWdh5v-42" style="edgeStyle=orthogonalEdgeStyle;rounded=0;orthogonalLoop=1;jettySize=auto;html=1;entryX=0.5;entryY=0;entryDx=0;entryDy=0;" parent="1" source="WkK8CL40pcv4JaZWdh5v-33" target="WkK8CL40pcv4JaZWdh5v-37" edge="1">
          <mxGeometry relative="1" as="geometry" />
        </mxCell>
        <mxCell id="WkK8CL40pcv4JaZWdh5v-33" value="Judge files &lt;b&gt;&lt;u&gt;Court&amp;nbsp;&lt;/u&gt;&lt;/b&gt;&lt;u style=&quot;font-weight: bold;&quot;&gt;Response to Motion&lt;/u&gt;&amp;nbsp;pursuant to &lt;i&gt;P.C. 1405&lt;/i&gt;&amp;nbsp;" style="rounded=0;whiteSpace=wrap;html=1;" parent="1" vertex="1">
          <mxGeometry x="70" y="700" width="120" height="60" as="geometry" />
        </mxCell>
        <mxCell id="WkK8CL40pcv4JaZWdh5v-40" style="edgeStyle=orthogonalEdgeStyle;rounded=0;orthogonalLoop=1;jettySize=auto;html=1;" parent="1" source="WkK8CL40pcv4JaZWdh5v-35" target="WkK8CL40pcv4JaZWdh5v-39" edge="1">
          <mxGeometry relative="1" as="geometry" />
        </mxCell>
        <mxCell id="WkK8CL40pcv4JaZWdh5v-35" value="Motion Approved" style="rounded=0;whiteSpace=wrap;html=1;" parent="1" vertex="1">
          <mxGeometry x="10" y="800" width="120" height="60" as="geometry" />
        </mxCell>
        <mxCell id="WkK8CL40pcv4JaZWdh5v-46" style="edgeStyle=orthogonalEdgeStyle;rounded=0;orthogonalLoop=1;jettySize=auto;html=1;entryX=0.5;entryY=0;entryDx=0;entryDy=0;" parent="1" source="WkK8CL40pcv4JaZWdh5v-37" target="WkK8CL40pcv4JaZWdh5v-45" edge="1">
          <mxGeometry relative="1" as="geometry" />
        </mxCell>
        <mxCell id="WkK8CL40pcv4JaZWdh5v-37" value="Motion Denied" style="rounded=0;whiteSpace=wrap;html=1;" parent="1" vertex="1">
          <mxGeometry x="160" y="800" width="120" height="60" as="geometry" />
        </mxCell>
        <mxCell id="WkK8CL40pcv4JaZWdh5v-39" value="Case is Dismissed" style="rounded=0;whiteSpace=wrap;html=1;" parent="1" vertex="1">
          <mxGeometry x="10" y="900" width="120" height="60" as="geometry" />
        </mxCell>
        <mxCell id="WkK8CL40pcv4JaZWdh5v-45" value="Back to Motion/Subpoena Period" style="rounded=1;whiteSpace=wrap;html=1;" parent="1" vertex="1">
          <mxGeometry x="160" y="900" width="120" height="60" as="geometry" />
        </mxCell>
        <mxCell id="WkK8CL40pcv4JaZWdh5v-49" style="edgeStyle=orthogonalEdgeStyle;rounded=0;orthogonalLoop=1;jettySize=auto;html=1;" parent="1" source="WkK8CL40pcv4JaZWdh5v-47" target="WkK8CL40pcv4JaZWdh5v-48" edge="1">
          <mxGeometry relative="1" as="geometry" />
        </mxCell>
        <mxCell id="WkK8CL40pcv4JaZWdh5v-47" value="&lt;b&gt;&lt;u&gt;Subpoena to Testify&lt;/u&gt;&lt;/b&gt;&amp;nbsp;filed by Plaintiff/Defendant pursuant to &lt;i&gt;P.C. 1409&lt;/i&gt;" style="rounded=0;whiteSpace=wrap;html=1;" parent="1" vertex="1">
          <mxGeometry x="250" y="510" width="120" height="60" as="geometry" />
        </mxCell>
        <mxCell id="beE_tadzqA_jlADr6ZBV-6" style="edgeStyle=orthogonalEdgeStyle;rounded=0;orthogonalLoop=1;jettySize=auto;html=1;entryX=0.5;entryY=0;entryDx=0;entryDy=0;" edge="1" parent="1" source="WkK8CL40pcv4JaZWdh5v-48" target="beE_tadzqA_jlADr6ZBV-5">
          <mxGeometry relative="1" as="geometry" />
        </mxCell>
        <mxCell id="WkK8CL40pcv4JaZWdh5v-48" value="Judge serves Supoena on appropriate person(s) or entity" style="rounded=0;whiteSpace=wrap;html=1;" parent="1" vertex="1">
          <mxGeometry x="250" y="610" width="120" height="60" as="geometry" />
        </mxCell>
        <mxCell id="beE_tadzqA_jlADr6ZBV-10" style="edgeStyle=orthogonalEdgeStyle;rounded=0;orthogonalLoop=1;jettySize=auto;html=1;entryX=0.5;entryY=0;entryDx=0;entryDy=0;" edge="1" parent="1" source="beE_tadzqA_jlADr6ZBV-2" target="beE_tadzqA_jlADr6ZBV-8">
          <mxGeometry relative="1" as="geometry" />
        </mxCell>
        <mxCell id="beE_tadzqA_jlADr6ZBV-11" style="edgeStyle=orthogonalEdgeStyle;rounded=0;orthogonalLoop=1;jettySize=auto;html=1;entryX=0.5;entryY=0;entryDx=0;entryDy=0;" edge="1" parent="1" source="beE_tadzqA_jlADr6ZBV-2" target="beE_tadzqA_jlADr6ZBV-9">
          <mxGeometry relative="1" as="geometry" />
        </mxCell>
        <mxCell id="beE_tadzqA_jlADr6ZBV-2" value="Motion for Pretrial Conference" style="rounded=0;whiteSpace=wrap;html=1;" vertex="1" parent="1">
          <mxGeometry x="420" y="510" width="120" height="60" as="geometry" />
        </mxCell>
        <mxCell id="beE_tadzqA_jlADr6ZBV-5" value="Back to Motion/Subpoena Period" style="rounded=1;whiteSpace=wrap;html=1;" vertex="1" parent="1">
          <mxGeometry x="250" y="710" width="120" height="60" as="geometry" />
        </mxCell>
        <mxCell id="beE_tadzqA_jlADr6ZBV-15" style="edgeStyle=orthogonalEdgeStyle;rounded=0;orthogonalLoop=1;jettySize=auto;html=1;entryX=0.5;entryY=0;entryDx=0;entryDy=0;" edge="1" parent="1" source="beE_tadzqA_jlADr6ZBV-8" target="beE_tadzqA_jlADr6ZBV-12">
          <mxGeometry relative="1" as="geometry" />
        </mxCell>
        <mxCell id="beE_tadzqA_jlADr6ZBV-8" value="Motion Approved" style="rounded=0;whiteSpace=wrap;html=1;" vertex="1" parent="1">
          <mxGeometry x="378.25" y="610" width="91.75" height="60" as="geometry" />
        </mxCell>
        <mxCell id="beE_tadzqA_jlADr6ZBV-14" style="edgeStyle=orthogonalEdgeStyle;rounded=0;orthogonalLoop=1;jettySize=auto;html=1;entryX=0.5;entryY=0;entryDx=0;entryDy=0;" edge="1" parent="1" source="beE_tadzqA_jlADr6ZBV-9" target="beE_tadzqA_jlADr6ZBV-13">
          <mxGeometry relative="1" as="geometry" />
        </mxCell>
        <mxCell id="beE_tadzqA_jlADr6ZBV-9" value="Motion Denied" style="rounded=0;whiteSpace=wrap;html=1;" vertex="1" parent="1">
          <mxGeometry x="490" y="610" width="100" height="60" as="geometry" />
        </mxCell>
        <mxCell id="beE_tadzqA_jlADr6ZBV-17" style="edgeStyle=orthogonalEdgeStyle;rounded=0;orthogonalLoop=1;jettySize=auto;html=1;" edge="1" parent="1" source="beE_tadzqA_jlADr6ZBV-12" target="beE_tadzqA_jlADr6ZBV-13">
          <mxGeometry relative="1" as="geometry">
            <Array as="points">
              <mxPoint x="425" y="790" />
              <mxPoint x="520" y="790" />
            </Array>
          </mxGeometry>
        </mxCell>
        <mxCell id="beE_tadzqA_jlADr6ZBV-12" value="Pretrial Conference date set by Judge" style="rounded=0;whiteSpace=wrap;html=1;" vertex="1" parent="1">
          <mxGeometry x="378.25" y="710" width="93.5" height="60" as="geometry" />
        </mxCell>
        <mxCell id="beE_tadzqA_jlADr6ZBV-13" value="Back to Motion/Subpoena Period" style="rounded=1;whiteSpace=wrap;html=1;" vertex="1" parent="1">
          <mxGeometry x="480" y="830" width="120" height="60" as="geometry" />
        </mxCell>
        <mxCell id="beE_tadzqA_jlADr6ZBV-18" value="&lt;b&gt;(See Page 2 for more Motions)&lt;/b&gt;" style="rounded=0;whiteSpace=wrap;html=1;" vertex="1" parent="1">
          <mxGeometry x="600" y="510" width="120" height="60" as="geometry" />
        </mxCell>
      </root>
    </mxGraphModel>
  </diagram>
</mxfile>
